<?xml version="1.0" encoding="UTF-8"?><svg id="a" xmlns="http://www.w3.org/2000/svg" width="169.43746" height="32.10889" viewBox="0 0 169.43746 32.10889"><g><path d="M22.34885,1.36914h-4.88455L6.72832,13.29252c-.16236,.18032-.17182,.45119-.02243,.6424l9.8712,12.63442h5.31988c.41658,0,.65048-.47956,.39401-.80783L12.63593,13.40363,22.72042,2.2037c.28969-.32174,.06137-.83457-.37157-.83457Z"/><rect y="1.36914" width="5" height="25.2002" rx=".5" ry=".5"/></g><g><path d="M27.28514,24.55225c-1.43066-.76953-2.54688-1.84277-3.34961-3.21777-.80322-1.375-1.20459-2.93164-1.20459-4.66943,0-1.73828,.40137-3.28906,1.20459-4.65332,.80273-1.36426,1.91895-2.43066,3.34961-3.20117,1.42969-.76953,3.03613-1.15527,4.81787-1.15527,1.80371,0,3.4209,.38574,4.85107,1.15527,1.42969,.77051,2.5459,1.83691,3.34961,3.20117,.80273,1.36426,1.2041,2.91504,1.2041,4.65332,0,1.73779-.40137,3.29443-1.2041,4.66943-.80371,1.375-1.91992,2.44824-3.34961,3.21777-1.43018,.77051-3.04736,1.15527-4.85107,1.15527-1.78174,0-3.38818-.38477-4.81787-1.15527Zm8.58008-3.89453c.98975-1.01172,1.48486-2.34277,1.48486-3.99268,0-1.65039-.49512-2.98145-1.48486-3.99316-.99023-1.01172-2.24414-1.51855-3.76221-1.51855s-2.7666,.50684-3.74561,1.51855-1.46826,2.34277-1.46826,3.99316c0,1.6499,.48926,2.98096,1.46826,3.99268,.979,1.0127,2.22754,1.51855,3.74561,1.51855s2.77197-.50586,3.76221-1.51855Z"/><path d="M58.83934,8.77734c1.35303,.74805,2.41406,1.80469,3.18457,3.16797,.76953,1.36426,1.15479,2.9375,1.15479,4.71973,0,1.78174-.38525,3.36084-1.15479,4.73584-.77051,1.375-1.83154,2.43652-3.18457,3.18457s-2.8877,1.12207-4.60352,1.12207c-1.21045,0-2.31592-.20996-3.31641-.62793-1.00146-.41699-1.84326-1.04395-2.5249-1.88086v1.77734c0,.27614-.22386,.5-.5,.5h-2.92676c-.27614,0-.5-.22386-.5-.5V1.48926c0-.27614,.22386-.5,.5-.5h3.125c.27614,0,.5,.22386,.5,.5V9.99902c.70361-.77051,1.53467-1.35352,2.49121-1.74902,.95703-.39648,2.00732-.59473,3.15186-.59473,1.71582,0,3.25049,.375,4.60352,1.12207Zm-1.32031,11.88037c.979-1.01172,1.46875-2.34277,1.46875-3.99268,0-1.65039-.48975-2.98145-1.46875-3.99316s-2.22754-1.51855-3.74512-1.51855c-.99023,0-1.88135,.22656-2.67334,.67676-.79199,.45117-1.41895,1.09473-1.88086,1.93066s-.69287,1.80371-.69287,2.9043c0,1.1001,.23096,2.06787,.69287,2.90381,.46191,.83691,1.08887,1.48047,1.88086,1.93066,.79199,.45117,1.68311,.67676,2.67334,.67676,1.51758,0,2.76611-.50586,3.74512-1.51855Z"/><path d="M79.56346,9.52051c1.37451,1.24316,2.0625,3.11816,2.0625,5.62598v9.82959c0,.27614-.22386,.5-.5,.5h-2.89404c-.27614,0-.5-.22386-.5-.5v-1.64453c-.50635,.76953-1.22656,1.3584-2.16162,1.76465-.93506,.40723-2.0625,.61133-3.38232,.61133s-2.4751-.22656-3.46484-.67676c-.99023-.45117-1.75488-1.07812-2.29346-1.88086-.53955-.80273-.80859-1.71094-.80859-2.72266,0-1.58398,.58838-2.85449,1.76514-3.81201,1.17676-.95703,3.03076-1.43555,5.56055-1.43555h4.5542v-.26367c0-1.23242-.36865-2.17871-1.10547-2.83887-.7373-.65918-1.83154-.98926-3.28369-.98926-.98975,0-1.96338,.1543-2.92041,.46191-.74444,.24004-1.39907,.55277-1.96365,.93863-.252,.17223-.59158,.1072-.73631-.16154l-1.13136-2.10081c-.12036-.2235-.06094-.50862,.14878-.65165,.84822-.57844,1.83913-1.03099,2.97306-1.35765,1.29785-.37402,2.67285-.56152,4.125-.56152,2.5957,0,4.58154,.62207,5.95654,1.86523Zm-3.76221,12.47412c.80322-.47266,1.36963-1.14941,1.69971-2.0293v-2.0459h-4.25684c-2.34284,0-3.53059,.75961-3.56327,2.27792-.01235,.57377,.1809,1.16472,.58059,1.57657,.60309,.62144,1.53069,.9297,2.78443,.9297,1.03369,0,1.95215-.23535,2.75537-.70898Z"/><path d="M102.31364,7.85352c.35981,0,.60183,.36862,.45879,.69878l-7.94725,18.34273c-.76953,1.91406-1.70508,3.26172-2.80469,4.04297-1.09961,.78027-2.43164,1.1709-3.99219,1.1709-.88086,0-1.75-.14355-2.60791-.42871-.70136-.23392-1.29961-.5416-1.79525-.92249-.19089-.14669-.23321-.41932-.11823-.63083l1.16277-2.13902c.13851-.2548,.47397-.35408,.7086-.18363,.29575,.21484,.62334,.39583,.98304,.54297,.53809,.21973,1.08301,.33008,1.63379,.33008,.72461,0,1.32422-.1875,1.79883-.56152,.47266-.37402,.90625-1.00098,1.30273-1.88086l.29688-.69238-7.38499-16.98964c-.14354-.33022,.09849-.69932,.45855-.69932h3.19728c.20053,0,.38166,.11981,.46013,.30435l5.41356,12.7313,5.44834-12.73235c.07873-.18398,.25957-.3033,.45968-.3033h2.86754Z"/><path d="M117.77733,9.52051c1.375,1.24316,2.0625,3.11816,2.0625,5.62598v9.82959c0,.27614-.22386,.5-.5,.5h-2.89355c-.27614,0-.5-.22386-.5-.5v-1.64453c-.50684,.76953-1.22754,1.3584-2.16211,1.76465-.93555,.40723-2.0625,.61133-3.38281,.61133-1.31934,0-2.47461-.22656-3.46484-.67676-.98926-.45117-1.75391-1.07812-2.29297-1.88086-.54004-.80273-.80859-1.71094-.80859-2.72266,0-1.58398,.58789-2.85449,1.76562-3.81201,1.17676-.95703,3.03027-1.43555,5.56055-1.43555h4.55371v-.26367c0-1.23242-.36914-2.17871-1.10547-2.83887-.7373-.65918-1.83203-.98926-3.2832-.98926-.99023,0-1.96387,.1543-2.9209,.46191-.74452,.24007-1.3992,.55283-1.96405,.93875-.25202,.17219-.59161,.10705-.73627-.16172l-1.13068-2.1008c-.12028-.22348-.06084-.50852,.14884-.65153,.84815-.57847,1.83877-1.03103,2.97317-1.35771,1.29688-.37402,2.67285-.56152,4.125-.56152,2.59473,0,4.58105,.62207,5.95605,1.86523Zm-3.76172,12.47412c.80273-.47266,1.36914-1.14941,1.69922-2.0293v-2.0459h-4.25684c-2.37598,0-3.56445,.78125-3.56445,2.34277,0,.74805,.29688,1.3418,.8916,1.78223,.59375,.44043,1.41895,.65918,2.47461,.65918,1.03418,0,1.95215-.23535,2.75586-.70898Z"/><path d="M126.37303,25.146c-1.16412-.31915-2.12773-.71013-2.89081-1.17352-.21974-.13344-.28744-.42028-.17149-.64974l1.1367-2.24958c.13116-.25957,.4465-.34389,.69865-.19897,.69356,.3986,1.49299,.72831,2.39882,.9886,1.11035,.31934,2.20508,.47852,3.2832,.47852,2.46387,0,3.69629-.64844,3.69629-1.94727,0-.61523-.31348-1.04492-.94043-1.28711-.62695-.24121-1.63379-.47266-3.01953-.69238-1.45215-.21973-2.63477-.47363-3.54785-.75977-.91309-.28516-1.70508-.78662-2.37598-1.50146s-1.00684-1.71094-1.00684-2.98633c0-1.67188,.69824-3.00879,2.0957-4.00977,1.39648-1.00098,3.2832-1.50195,5.65918-1.50195,1.20996,0,2.41992,.1377,3.63086,.41309,.99819,.22737,1.84726,.51799,2.54666,.8724,.24103,.12214,.3262,.42477,.20433,.66594l-1.13566,2.24751c-.12613,.24961-.42762,.33634-.67599,.20777-1.38231-.71556-2.91693-1.0737-4.60244-1.0737-1.21094,0-2.12891,.18164-2.75586,.54492s-.94043,.8418-.94043,1.43555c0,.66016,.33496,1.12793,1.00684,1.40234,.6709,.27539,1.70996,.5332,3.11816,.77539,1.40723,.2207,2.5625,.47363,3.46484,.75879,.90234,.28613,1.67773,.77051,2.32617,1.45264,.64941,.68262,.97363,1.65039,.97363,2.9043,0,1.64941-.71484,2.96973-2.14453,3.95996-1.43066,.99023-3.37793,1.48535-5.84082,1.48535-1.43066,0-2.82715-.1875-4.19141-.56152Z"/><path d="M157.45897,9.60254c1.3418,1.29883,2.01367,3.22363,2.01367,5.77539v9.59814c0,.27614-.22386,.5-.5,.5h-3.125c-.27614,0-.5-.22386-.5-.5V15.90527c0-1.53906-.36328-2.7002-1.08984-3.48145-.72559-.78027-1.75977-1.1709-3.10156-1.1709-1.51758,0-2.71777,.45605-3.59668,1.36914-.88086,.91309-1.32031,2.22754-1.32031,3.94336v8.41064c0,.27614-.22386,.5-.5,.5h-3.125c-.27614,0-.5-.22386-.5-.5V1.48926c0-.27614,.22386-.5,.5-.5h3.125c.27614,0,.5,.22386,.5,.5V9.89941c.68164-.72559,1.52344-1.28125,2.52441-1.66602s2.11719-.57812,3.34961-.57812c2.22168,0,4.00391,.64941,5.3457,1.94727Z"/><path d="M164.91698,4.24023c-.50684-.47266-.75977-1.06152-.75977-1.76562s.25293-1.29199,.75977-1.76562c.50586-.47266,1.13281-.70898,1.88086-.70898,.77178,0,1.41536,.24075,1.93076,.72119,.469,.43718,.71268,1.03283,.70882,1.67398-.00432,.71717-.25138,1.32111-.74212,1.81186-.49512,.49512-1.12793,.74219-1.89746,.74219-.74805,0-1.375-.23535-1.88086-.70898Zm.30176,3.61328h3.125c.27614,0,.5,.22386,.5,.5V24.97607c0,.27614-.22386,.5-.5,.5h-3.125c-.27614,0-.5-.22386-.5-.5V8.35352c0-.27614,.22386-.5,.5-.5Z"/></g></svg>