<?xml version="1.0" encoding="UTF-8"?><svg id="a" xmlns="http://www.w3.org/2000/svg" width="173.16457" height="32.23299" xmlns:xlink="http://www.w3.org/1999/xlink" viewBox="0 0 173.16457 32.23299"><defs><style>.d{fill:url(#b);}.d,.e{stroke:#000;stroke-miterlimit:10;stroke-width:.25px;}.e{fill:url(#c);}</style><linearGradient id="b" x1="15.08473" y1="33.13276" x2="15.08473" y2="7.93256" gradientTransform="translate(0 35.06532) scale(1 -1)" gradientUnits="userSpaceOnUse"><stop offset="0" stop-color="#3183b5"/><stop offset="1" stop-color="#0068b7"/></linearGradient><linearGradient id="c" x1="2.625" x2="2.625" xlink:href="#b"/></defs><g><polygon class="d" points="23.59687 1.93256 17.5893 1.93256 6.57258 14.16773 16.70209 27.13276 23.04712 27.13276 12.76093 13.96705 23.59687 1.93256"/><rect class="e" x=".125" y="1.93256" width="5" height="25.2002"/></g><path d="M26.73387,24.8686c-2.97173-1.47132-4.82856-4.52439-4.76807-7.83985-.05136-3.29669,1.79797-6.32898,4.75245-7.79248,1.5649-.77602,3.29306-1.16549,5.03955-1.13574,1.75167-.02843,3.48491,.3609,5.05615,1.13574,1.43757,.70691,2.64661,1.80494,3.48828,3.168,.8427,1.39343,1.27528,2.9963,1.24805,4.62451,.02573,1.63279-.40664,3.24012-1.24805,4.63965-.83979,1.37263-2.04853,2.48155-3.48828,3.2002-3.18438,1.53647-6.8957,1.53647-10.08008,0v-.00003Zm7.648-4.78418c.72296-.84822,1.09002-1.94309,1.02441-3.05567,.06404-1.09801-.30358-2.17756-1.02441-3.0083-1.44706-1.44907-3.79483-1.45071-5.2439-.00366l-.00365,.00366c-.72103,.83062-1.08867,1.91026-1.02441,3.0083-.06584,1.11261,.30125,2.20757,1.02441,3.05567,1.41619,1.44907,3.73894,1.47573,5.18801,.05955,.02008-.01962,.03993-.03947,.05955-.05955Z"/><path d="M59.58153,9.18842c1.29633,.73147,2.36091,1.81264,3.07226,3.12012,.78027,1.44876,1.17159,3.07508,1.13574,4.72021,.03447,1.65012-.35667,3.2813-1.13574,4.73633-.70999,1.31654-1.7742,2.40814-3.07226,3.15137-1.31201,.74184-2.7971,1.12292-4.3042,1.10449-1.92517,.14636-3.81142-.59663-5.11963-2.0166v1.72852h-5.792V1.98823h6.08007v7.90429c1.29231-1.24153,3.04221-1.89055,4.83155-1.792,1.50502-.01861,2.98877,.35641,4.3042,1.0879Zm-2.96,10.896c.7228-.84828,1.08968-1.94315,1.02392-3.05567,.06419-1.09794-.30325-2.17749-1.02392-3.0083-1.44737-1.4492-3.7955-1.45068-5.24469-.00331l-.00331,.00331c-.72088,.83068-1.08835,1.91033-1.02393,3.0083-.06599,1.11255,.30091,2.20751,1.02393,3.05567,1.41652,1.4492,3.73964,1.47569,5.18884,.05916,.01995-.0195,.03967-.03922,.05916-.05916Z"/><path d="M80.58836,10.0683c1.51562,1.312,2.27344,3.32291,2.27344,6.03272v9.63184h-5.66455v-2.2402c-.875,1.68555-2.5817,2.52833-5.12012,2.52832-1.20065,.02944-2.39259-.21119-3.48779-.7041-.90952-.40697-1.68192-1.06831-2.22412-1.9043-.50745-.82131-.76846-1.77104-.752-2.73633-.06441-1.51315,.64749-2.95464,1.88818-3.82324,1.2583-.90722,3.19955-1.36083,5.82373-1.36084h3.45605c-.10693-1.83447-1.3335-2.75178-3.67968-2.75195-.85822,.00423-1.71078,.13924-2.52832,.40039-.78649,.2323-1.52388,.60645-2.17578,1.104l-2.04833-4.12845c1.07607-.68962,2.26085-1.19262,3.50439-1.4878,1.35371-.34917,2.74599-.5265,4.144-.52783,2.87994,0,5.07691,.65592,6.59091,1.96777Zm-4.959,11.6001c.54405-.35545,.95042-.88602,1.15185-1.5039v-1.50391h-2.624c-1.771,0-2.65626,.58659-2.65576,1.75977-.01629,.49995,.21018,.97691,.60791,1.28027,.48398,.34458,1.07089,.51405,1.66406,.48047,.65539,.01354,1.30046-.16465,1.85596-.5127h-.00002Z"/><path d="M104.97215,8.38813l-7.4873,18.04883c-.6124,1.77514-1.72348,3.33615-3.2002,4.49609-1.36638,.89545-2.97557,1.34797-4.6084,1.2959-.939-.0037-1.87205-.14922-2.76757-.43164-.81752-.2317-1.58321-.61753-2.25586-1.13672l2.11132-4.25586c.35711,.32961,.77599,.5852,1.23243,.752,.46485,.17811,.95824,.27011,1.45605,.27149,.49832,.01995,.99207-.10196,1.42383-.35156,.41164-.27959,.73836-.66713,.94433-1.12012l-7.42382-17.56841h6.23925l4.25586,10.59277,4.28809-10.59277h5.79199Z"/><path d="M120.52391,10.0683c1.51467,1.312,2.27216,3.32291,2.27246,6.03272v9.63184h-5.66406v-2.2402c-.875,1.68555-2.5817,2.52833-5.12012,2.52832-1.20081,.02938-2.39289-.21124-3.48828-.7041-.90939-.40698-1.68163-1.06833-2.22363-1.9043-.50723-.82141-.76822-1.77107-.752-2.73633-.06437-1.51303,.64731-2.95443,1.8877-3.82324,1.2588-.90722,3.2002-1.36083,5.82422-1.36084h3.456c-.10644-1.83447-1.333-2.75178-3.67968-2.75195-.85822,.00427-1.71078,.13928-2.52833,.40039-.78649,.2323-1.52388,.60645-2.17578,1.104l-2.04785-4.12841c1.0759-.68962,2.26052-1.19262,3.50391-1.4878,1.35355-.34914,2.74569-.52648,4.14355-.52783,2.87995-.00003,5.07725,.65588,6.5919,1.96773Zm-4.96,11.6001c.5442-.35542,.95074-.88598,1.15234-1.5039v-1.50391h-2.624c-1.77052,0-2.65593,.58659-2.65625,1.75977-.01589,.49997,.21072,.97683,.6084,1.28027,.48402,.34451,1.0709,.51397,1.66406,.48047,.65525,.01362,1.30019-.16459,1.85548-.5127h-.00004Z"/><path d="M128.65184,25.52485c-1.19286-.24679-2.3381-.68437-3.3916-1.2959l1.82422-4.16016c.87524,.52704,1.82414,.92069,2.81543,1.168,1.05418,.28347,2.14079,.42857,3.23242,.43164,.71204,.04441,1.42557-.05899,2.0957-.30371,.36992-.13605,.61794-.48578,.62399-.87988,0-.38379-.25066-.65593-.752-.81641-.78131-.21643-1.57832-.37152-2.38379-.46386-1.19409-.13345-2.37624-.35807-3.53606-.67191-.96223-.27209-1.83115-.8035-2.51172-1.53613-.74776-.8676-1.12692-1.99302-1.05664-3.13623-.0128-1.07037,.33688-2.11358,.99219-2.96,.75984-.93489,1.76173-1.64324,2.89648-2.04786,1.45938-.53388,3.00604-.78897,4.55957-.752,1.25787-.00009,2.51245,.1285,3.74414,.38379,1.08409,.20164,2.1308,.56854,3.10352,1.08789l-1.82324,4.12793c-1.52576-.85021-3.24557-1.2911-4.99219-1.27978-.72012-.04244-1.44087,.07218-2.1123,.33593-.38046,.13158-.64514,.47821-.67188,.87989,0,.40576,.24544,.68847,.73633,.84814,.7972,.22512,1.60997,.39094,2.43164,.49609,1.19911,.16514,2.38573,.41097,3.55176,.73584,.93808,.27724,1.78394,.80259,2.44826,1.5206,.73569,.85451,1.10884,1.96241,1.03999,3.08789,.00925,1.05994-.34044,2.09181-.99219,2.92774-.76599,.9386-1.78053,1.64282-2.92773,2.03222-1.49498,.52424-3.07246,.7737-4.65625,.73633-1.4437,.0005-2.88261-.16597-4.28806-.49609Z"/><path d="M160.63622,10.02045c1.31154,1.27979,1.96745,3.21046,1.96777,5.792v9.92041h-6.08008v-8.92872c0-2.36767-.94922-3.55159-2.84766-3.55175-.94669-.0408-1.86415,.33306-2.5127,1.02392-.69078,.86859-1.02776,1.96618-.94336,3.07276v8.38379h-6.08008V1.98823h6.08008V9.98823c.67296-.62568,1.46835-1.10501,2.33594-1.40772,.92503-.32514,1.8994-.48754,2.87988-.48,1.92143-.08781,3.79681,.60459,5.2002,1.91994Z"/><path d="M166.76317,5.54047c-.66489-.57909-1.03955-1.42263-1.02344-2.3042-.01602-.88141,.35864-1.72476,1.02344-2.30371,.74484-.64121,1.7067-.97329,2.68848-.92822,.97333-.04547,1.92952,.26759,2.6875,.87988,.66861,.55584,1.04604,1.38714,1.02441,2.25635,.0231,.90608-.35115,1.77696-1.02441,2.38379-.74005,.65034-1.70331,.98864-2.6875,.94385-.98172,.04523-1.94357-.28668-2.68848-.92774Zm-.35156,2.84766h6.08006V25.73286h-6.08006V8.38813Z"/></svg>