<svg xmlns="http://www.w3.org/2000/svg" width="177.43701" height="35.77637" viewBox="0 0 177.43701 35.77637"><path d="M10.87988,19.07227,8.51221,21.59961V27.2002h-6.272V4.7998h6.272v9.312l8.67187-9.312h6.97608l-9.15235,9.91993L24.64014,27.2002H17.27979Z"/><path d="M29.6958,26.33594a8.57361,8.57361,0,0,1-4.76807-7.83985,8.54754,8.54754,0,0,1,4.75245-7.79248,10.92467,10.92467,0,0,1,5.03955-1.13574,11.02732,11.02732,0,0,1,5.05615,1.13574,8.51658,8.51658,0,0,1,3.48828,3.168,8.65659,8.65659,0,0,1,1.24805,4.62451,8.73735,8.73735,0,0,1-1.24805,4.63965,8.58313,8.58313,0,0,1-3.48828,3.2002,11.598,11.598,0,0,1-10.08008,0Zm7.648-4.78418a4.31869,4.31869,0,0,0,1.02441-3.05567,4.21569,4.21569,0,0,0-1.02441-3.0083,3.708,3.708,0,0,0-5.24756,0,4.21356,4.21356,0,0,0-1.02441,3.0083,4.31651,4.31651,0,0,0,1.02441,3.05567,3.66872,3.66872,0,0,0,5.24756,0Z"/><path d="M62.54346,10.65576a7.93907,7.93907,0,0,1,3.07226,3.12012,9.51735,9.51735,0,0,1,1.13574,4.72021,9.60888,9.60888,0,0,1-1.13574,4.73633,8.01558,8.01558,0,0,1-3.07226,3.15137,8.53291,8.53291,0,0,1-4.3042,1.10449,6.31068,6.31068,0,0,1-5.11963-2.0166V27.2002h-5.792V3.45557h6.08007v7.90429a6.4611,6.4611,0,0,1,4.83155-1.792A8.63671,8.63671,0,0,1,62.54346,10.65576Zm-2.96,10.896a4.31854,4.31854,0,0,0,1.02392-3.05567,4.21553,4.21553,0,0,0-1.02392-3.0083,3.70856,3.70856,0,0,0-5.248,0,4.21331,4.21331,0,0,0-1.02393,3.0083,4.31627,4.31627,0,0,0,1.02393,3.05567,3.6693,3.6693,0,0,0,5.248,0Z"/><path d="M83.55029,11.53564q2.27344,1.968,2.27344,6.03272V27.2002H80.15918V24.96q-1.3125,2.52833-5.12012,2.52832a8.01932,8.01932,0,0,1-3.48779-.7041,5.16569,5.16569,0,0,1-2.22412-1.9043,5.0424,5.0424,0,0,1-.752-2.73633,4.43674,4.43674,0,0,1,1.88818-3.82324q1.88745-1.36083,5.82373-1.36084h3.45605q-.1604-2.7517-3.67968-2.75195a8.44575,8.44575,0,0,0-2.52832.40039,6.7268,6.7268,0,0,0-2.17578,1.104L69.311,11.5835a11.35515,11.35515,0,0,1,3.50439-1.4878,16.65517,16.65517,0,0,1,4.144-.52783Q81.2793,9.56787,83.55029,11.53564Zm-4.959,11.6001a2.8525,2.8525,0,0,0,1.15185-1.5039V20.12793h-2.624q-2.6565,0-2.65576,1.75977a1.54682,1.54682,0,0,0,.60791,1.28027,2.61438,2.61438,0,0,0,1.66406.48047A3.36466,3.36466,0,0,0,78.59131,23.13574Z"/><path d="M107.93408,9.85547l-7.4873,18.04883a9.7681,9.7681,0,0,1-3.2002,4.49609,7.94552,7.94552,0,0,1-4.6084,1.2959,9.324,9.324,0,0,1-2.76757-.43164,6.66739,6.66739,0,0,1-2.25586-1.13672l2.11132-4.25586a3.67884,3.67884,0,0,0,1.23243.752,4.10128,4.10128,0,0,0,1.45605.27149,2.63438,2.63438,0,0,0,1.42383-.35156,2.71008,2.71008,0,0,0,.94433-1.12012L87.35889,9.85547h6.23925L97.854,20.44824l4.28809-10.59277Z"/><path d="M123.48584,11.53564q2.272,1.968,2.27246,6.03272V27.2002h-5.66406V24.96q-1.3125,2.52833-5.12012,2.52832a8.02309,8.02309,0,0,1-3.48828-.7041,5.16427,5.16427,0,0,1-2.22363-1.9043,5.04661,5.04661,0,0,1-.752-2.73633,4.43752,4.43752,0,0,1,1.8877-3.82324q1.88819-1.36083,5.82422-1.36084h3.456q-.15966-2.7517-3.67968-2.75195a8.44823,8.44823,0,0,0-2.52833.40039,6.727,6.727,0,0,0-2.17578,1.104l-2.04785-4.12841a11.35219,11.35219,0,0,1,3.50391-1.4878,16.65411,16.65411,0,0,1,4.14355-.52783Q121.21387,9.56787,123.48584,11.53564Zm-4.96,11.6001a2.85329,2.85329,0,0,0,1.15234-1.5039V20.12793h-2.624q-2.65576,0-2.65625,1.75977a1.54853,1.54853,0,0,0,.6084,1.28027,2.61532,2.61532,0,0,0,1.66406.48047A3.36185,3.36185,0,0,0,118.52588,23.13574Z"/><path d="M131.61377,26.99219a11.32685,11.32685,0,0,1-3.3916-1.2959l1.82422-4.16016a10.28281,10.28281,0,0,0,2.81543,1.168,12.58417,12.58417,0,0,0,3.23242.43164,5.171,5.171,0,0,0,2.0957-.30371.95309.95309,0,0,0,.624-.87988q0-.57569-.752-.81641a15.57466,15.57466,0,0,0-2.38379-.46386A23.55387,23.55387,0,0,1,132.14209,20a5.45374,5.45374,0,0,1-2.51172-1.53613,4.39115,4.39115,0,0,1-1.05664-3.13623,4.74254,4.74254,0,0,1,.99219-2.96,6.58055,6.58055,0,0,1,2.89648-2.04786,12.41216,12.41216,0,0,1,4.55957-.752,18.44171,18.44171,0,0,1,3.74414.38379,10.77141,10.77141,0,0,1,3.10352,1.08789l-1.82324,4.12793a10.121,10.121,0,0,0-4.99219-1.27978,4.97655,4.97655,0,0,0-2.11231.33593,1.0014,1.0014,0,0,0-.67187.87989q0,.60864.73633.84814a16.78947,16.78947,0,0,0,2.43164.49609,26.91519,26.91519,0,0,1,3.55176.73584A5.4334,5.4334,0,0,1,143.438,18.7041a4.32777,4.32777,0,0,1,1.04,3.08789,4.6949,4.6949,0,0,1-.99219,2.92774,6.45833,6.45833,0,0,1-2.92773,2.03222,13.13477,13.13477,0,0,1-4.65625.73633A18.72426,18.72426,0,0,1,131.61377,26.99219Z"/><path d="M163.59814,11.48779q1.9673,1.91969,1.96778,5.792V27.2002h-6.08008V18.27148q0-3.55151-2.84766-3.55175a3.25421,3.25421,0,0,0-2.51269,1.02392,4.39912,4.39912,0,0,0-.94336,3.07276V27.2002h-6.08008V3.45557h6.08008v8a6.64617,6.64617,0,0,1,2.33594-1.40772,8.4879,8.4879,0,0,1,2.87988-.48A7.12836,7.12836,0,0,1,163.59814,11.48779Z"/><path d="M169.7251,7.00781a2.98332,2.98332,0,0,1-1.02344-2.3042A2.983,2.983,0,0,1,169.7251,2.3999a3.85015,3.85015,0,0,1,2.68847-.92822,3.98115,3.98115,0,0,1,2.6875.87988,2.84235,2.84235,0,0,1,1.02442,2.25635,3.10272,3.10272,0,0,1-1.02442,2.38379,3.809,3.809,0,0,1-2.6875.94385A3.84989,3.84989,0,0,1,169.7251,7.00781Zm-.35156,2.84766h6.08007V27.2002h-6.08007Z"/></svg>